<?xml version="1.0" ?><svg id="Layer_1" style="enable-background:new 0 0 100 100;" version="1.1" 
width = "34px" height = "34px" 
viewBox="0 0 80 80" xml:space="preserve" xmlns="http://www.w3.org/2000/svg" xmlns:xlink="http://www.w3.org/1999/xlink"><path d="M77.494,51.709c-0.051-7.771-4.758-14.449-11.467-17.391l3.706-8.138c0.246,0.065,0.499,0.111,0.765,0.111  c1.654,0,3-1.346,3-3s-1.346-3-3-3s-3,1.346-3,3c0,1.032,0.524,1.944,1.321,2.484l-3.723,8.176c-2.094-0.79-4.353-1.242-6.72-1.242  h-16.75c-2.368,0-4.628,0.453-6.723,1.243l-3.723-8.177c0.796-0.54,1.321-1.452,1.321-2.484c0-1.654-1.346-3-3-3s-3,1.346-3,3  s1.346,3,3,3c0.266,0,0.519-0.046,0.765-0.111l3.706,8.139c-6.707,2.943-11.414,9.62-11.464,17.39H22.5v0.125v4.75v0.125h0.006  c0.068,10.488,8.615,19,19.119,19h16.75c10.504,0,19.05-8.512,19.119-19H77.5v-0.125v-4.75v-0.125H77.494z M70.498,21.291  c1.103,0,2,0.897,2,2s-0.897,2-2,2s-2-0.897-2-2S69.396,21.291,70.498,21.291z M27.5,23.291c0-1.103,0.897-2,2-2s2,0.897,2,2  s-0.897,2-2,2S27.5,24.394,27.5,23.291z M58.375,74.709h-16.75c-9.994,0-18.125-8.131-18.125-18.125v-4.75  c0-9.994,8.131-18.125,18.125-18.125h16.75c9.994,0,18.125,8.131,18.125,18.125v4.75C76.5,66.578,68.369,74.709,58.375,74.709z"/><path d="M61,78.709H40c-0.276,0-0.5,0.224-0.5,0.5s0.224,0.5,0.5,0.5h21c0.276,0,0.5-0.224,0.5-0.5S61.276,78.709,61,78.709z"/><path d="M56.795,41.709h-14.59c-6.454,0-11.705,5.251-11.705,11.705v0.59c0,6.454,5.251,11.705,11.705,11.705h12.324  c0.086,0.78,0.422,2.292,1.714,3.432c1.63,1.439,3.855,1.569,3.95,1.574c0.008,0.001,0.017,0.001,0.025,0.001  c0.168,0,0.325-0.085,0.418-0.227c0.098-0.149,0.108-0.339,0.028-0.498c-0.004-0.008-0.398-0.812-0.497-2.149  c-0.077-1.031-0.03-2.086,0.003-2.611c4.922-1.455,8.329-5.967,8.329-11.096v-0.721C68.5,46.96,63.249,41.709,56.795,41.709z   M67.5,54.135c0,4.794-3.261,8.998-7.929,10.226c-0.203,0.054-0.352,0.229-0.371,0.438c-0.006,0.063-0.144,1.587-0.03,3.118  c0.052,0.691,0.173,1.261,0.293,1.683c-0.698-0.15-1.736-0.482-2.558-1.208c-1.424-1.256-1.405-3.152-1.405-3.171  c0.002-0.134-0.049-0.265-0.144-0.36c-0.094-0.096-0.223-0.15-0.356-0.15H42.205c-5.903,0-10.705-4.803-10.705-10.705v-0.59  c0-5.903,4.802-10.705,10.705-10.705h14.59c5.902,0,10.705,4.802,10.705,10.705V54.135z"/><path d="M39.5,50.709c-1.654,0-3,1.346-3,3s1.346,3,3,3s3-1.346,3-3S41.154,50.709,39.5,50.709z M39.5,55.709c-1.103,0-2-0.897-2-2  s0.897-2,2-2s2,0.897,2,2S40.603,55.709,39.5,55.709z"/><path d="M49.5,50.709c-1.654,0-3,1.346-3,3s1.346,3,3,3s3-1.346,3-3S51.154,50.709,49.5,50.709z M49.5,55.709c-1.103,0-2-0.897-2-2  s0.897-2,2-2s2,0.897,2,2S50.603,55.709,49.5,55.709z"/><path d="M59.5,50.709c-1.654,0-3,1.346-3,3s1.346,3,3,3s3-1.346,3-3S61.154,50.709,59.5,50.709z M59.5,55.709c-1.103,0-2-0.897-2-2  s0.897-2,2-2s2,0.897,2,2S60.603,55.709,59.5,55.709z"/><path d="M31.383,43.207c0.152,0,0.301-0.069,0.4-0.199c1.338-1.775,3.259-3.046,5.408-3.58c0.268-0.066,0.431-0.338,0.365-0.606  c-0.067-0.268-0.338-0.429-0.606-0.365c-2.371,0.589-4.489,1.991-5.966,3.948c-0.166,0.221-0.122,0.534,0.098,0.701  C31.173,43.174,31.279,43.207,31.383,43.207z"/></svg>