<?xml version="1.0" ?>
<!DOCTYPE svg  PUBLIC '-//W3C//DTD SVG 1.1//EN'  'http://www.w3.org/Graphics/SVG/1.1/DTD/svg11.dtd'>
<svg enable-background="new 0 0 24 24" 
height="36px"
width="36px" 
id="Layer_1" 
version="1.1" 
viewBox="0 0 24 24"  
xml:space="preserve" 
xmlns="http://www.w3.org/2000/svg" 
xmlns:xlink="http://www.w3.org/1999/xlink"><g><g><g><g><g>
<path fill = "#9D50BB" d="M8.2,15.8c-0.1,0-0.3,0-0.4-0.1l-2.1-2.1c-0.2-0.2-0.2-0.5,0-0.7c0.2-0.2,0.5-0.2,0.7,0L8.6,15c0.2,0.2,0.2,0.5,0,0.7       C8.5,15.8,8.3,15.8,8.2,15.8z"/></g><g>
<path fill = "#9D50BB" d="M6.1,15.8c-0.1,0-0.3,0-0.4-0.1c-0.2-0.2-0.2-0.5,0-0.7l2.1-2.1c0.2-0.2,0.5-0.2,0.7,0c0.2,0.2,0.2,0.5,0,0.7l-2.1,2.1       C6.3,15.8,6.2,15.8,6.1,15.8z"/></g></g><g><g>
<path fill = "#9D50BB" d="M17.9,15.8c-0.1,0-0.3,0-0.4-0.1l-2.1-2.1c-0.2-0.2-0.2-0.5,0-0.7s0.5-0.2,0.7,0l2.1,2.1c0.2,0.2,0.2,0.5,0,0.7       C18.2,15.8,18.1,15.8,17.9,15.8z"/></g><g>
<path fill = "#9D50BB" d="M15.8,15.8c-0.1,0-0.3,0-0.4-0.1c-0.2-0.2-0.2-0.5,0-0.7l2.1-2.1c0.2-0.2,0.5-0.2,0.7,0s0.2,0.5,0,0.7l-2.1,2.1       C16.1,15.8,15.9,15.8,15.8,15.8z"/></g></g></g><g>
<path fill = "#9D50BB" d="M15.1,19.6H8.9c-0.3,0-0.5-0.2-0.5-0.5s0.2-0.5,0.5-0.5h6.1c0.3,0,0.5,0.2,0.5,0.5S15.3,19.6,15.1,19.6z"/></g></g><g><g>
<path fill = "#9D50BB" d="M19.9,23.6H4.2c-2.1,0-3.7-1.7-3.7-3.7V12c0-2,1.7-3.7,3.7-3.7h15.7c2,0,3.7,1.7,3.7,3.7v7.9     C23.6,21.9,21.9,23.6,19.9,23.6z M4.2,9.3c-1.5,0-2.7,1.2-2.7,2.7v7.9c0,1.5,1.2,2.7,2.7,2.7h15.7c1.5,0,2.7-1.2,2.7-2.7V12     c0-1.5-1.2-2.7-2.7-2.7H4.2z"/></g><g><g>
<rect fill = "#9D50BB" height="1" width="2.8" x="10.6" y="6.9"/></g><g>
<rect fill = "#9D50BB" height="1" width="2.8" x="10.6" y="5.6"/></g><g>
<rect fill = "#9D50BB" height="1.4" width="1" x="11.5" y="3.9"/></g><g>
<path fill = "#9D50BB" d="M12,4.5c-1.1,0-2-0.9-2-2s0.9-2,2-2s2,0.9,2,2S13.1,4.5,12,4.5z M12,1.4c-0.6,0-1,0.5-1,1s0.5,1,1,1c0.6,0,1-0.5,1-1      S12.6,1.4,12,1.4z"/></g></g></g></g></svg>