<?xml version="1.0" ?><!DOCTYPE svg  PUBLIC '-//W3C//DTD SVG 1.1//EN'  'http://www.w3.org/Graphics/SVG/1.1/DTD/svg11.dtd'><svg height="24px" id="vec_x5F_basic_x5F_1_x5C_2_basic" style="enable-background:new 0 0 40 40;" version="1.1" viewBox="0 0 40 40" width="24px" xml:space="preserve" xmlns="http://www.w3.org/2000/svg" xmlns:xlink="http://www.w3.org/1999/xlink"><path d="  M23.572,19.445c5.976,1.357,10.503,6.005,11.981,11.678c0.338,1.294,0.08,2.55-0.736,3.608c-0.819,1.059-1.97,1.623-3.307,1.623  H8.49c-1.338,0-2.489-0.564-3.306-1.623c-0.818-1.058-1.075-2.314-0.737-3.608c1.478-5.672,6.004-10.32,11.981-11.678  c-2.798-1.335-4.732-4.19-4.732-7.496c0-4.585,3.718-8.303,8.304-8.303c4.585,0,8.304,3.718,8.304,8.303  C28.304,15.255,26.369,18.11,23.572,19.445z" style="fill-rule:evenodd;clip-rule:evenodd;fill:none;stroke:#000000;stroke-width:2.2;stroke-linecap:round;stroke-linejoin:round;stroke-miterlimit:22.9256;"/></svg>