<?xml version="1.0" ?><!DOCTYPE svg  PUBLIC '-//W3C//DTD SVG 1.1//EN'  'http://www.w3.org/Graphics/SVG/1.1/DTD/svg11.dtd'><svg enable-background="new 0 0 24 24" height="24px" id="Layer_1" version="1.1" viewBox="0 0 24 24" width="24px" xml:space="preserve" xmlns="http://www.w3.org/2000/svg" xmlns:xlink="http://www.w3.org/1999/xlink"><g><g><g><g><path d="M16.8,14.9c-0.6,0-1.3-0.2-1.8-0.7l-0.4-0.3l0.7-0.7l0.4,0.3c0.6,0.6,1.6,0.6,2.2,0l0.4-0.4l0.7,0.7l-0.4,0.4      C18.1,14.6,17.5,14.9,16.8,14.9z"/></g><g><path d="M7.2,14.9c-0.6,0-1.3-0.2-1.8-0.7L5,13.8l0.7-0.7l0.4,0.4c0.6,0.6,1.6,0.6,2.2,0l0.4-0.4l0.7,0.7L9,14.1      C8.5,14.6,7.8,14.9,7.2,14.9z"/></g></g><g><path d="M8.4,19.1c-0.2,0-0.4-0.1-0.5-0.3c-0.1-0.2,0-0.4,0.1-0.5c1.1-1.1,2.5-1.6,4-1.6c1.5,0,2.9,0.6,4,1.6     c0.1,0.1,0.2,0.4,0.1,0.5s-0.3,0.3-0.5,0.3L8.4,19.1L8.4,19.1z M12,17.6c-0.7,0-1.5,0.2-2.1,0.5l4.2,0     C13.5,17.8,12.7,17.6,12,17.6z"/></g></g><g><g><path d="M19.9,23.6H4.1c-2,0-3.7-1.7-3.7-3.7V12c0-2,1.7-3.7,3.7-3.7h15.7c2,0,3.7,1.7,3.7,3.7v7.9     C23.6,21.9,21.9,23.6,19.9,23.6z M4.1,9.2c-1.5,0-2.7,1.2-2.7,2.7v7.9c0,1.5,1.2,2.7,2.7,2.7h15.7c1.5,0,2.7-1.2,2.7-2.7V12     c0-1.5-1.2-2.7-2.7-2.7H4.1z"/></g><g><g><rect height="1" width="2.8" x="10.6" y="6.9"/></g><g><rect height="1" width="2.8" x="10.6" y="5.6"/></g><g><rect height="1.4" width="1" x="11.5" y="3.9"/></g><g><path d="M12,4.5c-1.1,0-2-0.9-2-2c0-1.1,0.9-2,2-2c1.1,0,2,0.9,2,2C14,3.6,13.1,4.5,12,4.5z M12,1.4c-0.6,0-1,0.5-1,1      c0,0.6,0.5,1,1,1c0.6,0,1-0.5,1-1C13,1.9,12.6,1.4,12,1.4z"/></g></g></g></g></svg>