<?xml version="1.0" ?><!DOCTYPE svg  PUBLIC '-//W3C//DTD SVG 1.1//EN'  'http://www.w3.org/Graphics/SVG/1.1/DTD/svg11.dtd'><svg enable-background="new 0 0 24 24" height="24px" id="Layer_1" version="1.1" viewBox="0 0 24 24" width="24px" xml:space="preserve" xmlns="http://www.w3.org/2000/svg" xmlns:xlink="http://www.w3.org/1999/xlink"><g><g><g><g><path d="M16,21.5H8c-0.3,0-0.5-0.2-0.5-0.5v-1.8c0-1.9,1.5-3.4,3.4-3.4h2.3c1.9,0,3.4,1.5,3.4,3.4V21      C16.5,21.3,16.3,21.5,16,21.5z M8.5,20.5h7.1v-1.3c0-1.3-1.1-2.4-2.4-2.4h-2.3c-1.3,0-2.4,1.1-2.4,2.4V20.5z"/></g><g><rect height="1" width="8.8" x="7.5" y="18.6"/></g></g><g><g><path d="M6.9,15.6c-0.2,0-0.3-0.1-0.4-0.2c-0.1-0.2-0.1-0.5,0.2-0.7l1.5-0.9l-1.5-0.9c-0.2-0.1-0.3-0.4-0.2-0.7      C6.7,12,7,11.9,7.2,12l2.3,1.3c0.2,0.1,0.2,0.3,0.2,0.4s-0.1,0.3-0.2,0.4l-2.3,1.3C7.1,15.6,7,15.6,6.9,15.6z"/></g><g><path d="M17,15.6c-0.1,0-0.2,0-0.3-0.1l-2.3-1.3c-0.2-0.1-0.2-0.3-0.2-0.4s0.1-0.3,0.2-0.4l2.3-1.3c0.2-0.1,0.5-0.1,0.7,0.2      c0.1,0.2,0.1,0.5-0.2,0.7l-1.5,0.9l1.5,0.9c0.2,0.1,0.3,0.4,0.2,0.7C17.4,15.5,17.2,15.6,17,15.6z"/></g></g></g><g><g><path d="M19.8,23.6H4.1c-2,0-3.7-1.7-3.7-3.7V12c0-2,1.7-3.7,3.7-3.7h15.7c2.1,0,3.7,1.7,3.7,3.7v7.9     C23.6,21.9,21.9,23.6,19.8,23.6z M4.1,9.3c-1.5,0-2.7,1.2-2.7,2.7v7.9c0,1.5,1.2,2.7,2.7,2.7h15.7c1.5,0,2.7-1.2,2.7-2.7V12     c0-1.5-1.2-2.7-2.7-2.7H4.1z"/></g><g><g><rect height="1" width="2.8" x="10.6" y="6.9"/></g><g><rect height="1" width="2.8" x="10.6" y="5.6"/></g><g><rect height="1.4" width="1" x="11.5" y="3.9"/></g><g><path d="M12,4.5c-1.1,0-2-0.9-2-2s0.9-2,2-2s2,0.9,2,2S13.1,4.5,12,4.5z M12,1.4c-0.6,0-1,0.5-1,1s0.5,1,1,1c0.6,0,1-0.5,1-1      S12.6,1.4,12,1.4z"/></g></g></g></g></svg>