<?xml version="1.0" ?><!DOCTYPE svg  PUBLIC '-//W3C//DTD SVG 1.1//EN'  'http://www.w3.org/Graphics/SVG/1.1/DTD/svg11.dtd'><svg enable-background="new 0 0 24 24" height="24px" id="Layer_1" version="1.1" viewBox="0 0 24 24" width="24px" xml:space="preserve" xmlns="http://www.w3.org/2000/svg" xmlns:xlink="http://www.w3.org/1999/xlink"><g><g><g><path d="M8.4,19l-0.7-0.7L8,17.9c2.2-2.2,5.8-2.2,7.9,0l0.4,0.4L15.6,19l-0.4-0.4c-1.8-1.8-4.7-1.8-6.5,0L8.4,19z"/></g><g><g><path d="M7.2,15.5c-0.5,0-1-0.4-1-0.9s0.4-0.9,1-0.9c0.5,0,0.9,0.4,0.9,0.9S7.7,15.5,7.2,15.5z"/></g><g><path d="M16.8,15.5c-0.5,0-0.9-0.4-0.9-0.9s0.4-0.9,0.9-0.9c0.5,0,0.9,0.4,0.9,0.9S17.3,15.5,16.8,15.5z"/></g></g></g><g><g><path d="M19.8,23.6H4.1c-2,0-3.7-1.7-3.7-3.7V12c0-2,1.7-3.7,3.7-3.7h15.7c2.1,0,3.7,1.7,3.7,3.7v7.9     C23.6,21.9,21.9,23.6,19.8,23.6z M4.1,9.2c-1.5,0-2.7,1.2-2.7,2.7v7.9c0,1.5,1.2,2.7,2.7,2.7h15.7c1.5,0,2.7-1.2,2.7-2.7V12     c0-1.5-1.2-2.7-2.7-2.7H4.1z"/></g><g><g><rect height="1" width="2.8" x="10.6" y="6.9"/></g><g><rect height="1" width="2.8" x="10.6" y="5.6"/></g><g><rect height="1.4" width="1" x="11.5" y="3.9"/></g><g><path d="M12,4.5c-1.1,0-2-0.9-2-2c0-1.1,0.9-2,2-2s2,0.9,2,2C14,3.6,13.1,4.5,12,4.5z M12,1.4c-0.6,0-1,0.5-1,1c0,0.6,0.5,1,1,1      s1-0.5,1-1C13,1.9,12.6,1.4,12,1.4z"/></g></g></g></g></svg>