<?xml version="1.0" ?><svg height="56px" width="56px" id="Layer_1" style="enable-background:new 0 0 40 40;" version="1.1" viewBox="0 0 100 100" xml:space="preserve" xmlns="http://www.w3.org/2000/svg" xmlns:xlink="http://www.w3.org/1999/xlink"><style type="text/css">
	.st0{fill:url(#SVGID_1_);}
	.st1{fill:#000000;}
</style><linearGradient gradientUnits="userSpaceOnUse" id="SVGID_1_" x1="50" x2="50" y1="21.29" y2="74.71">
<stop offset="0" style="stop-color:#8f94fb"/>
<stop offset="1" style="stop-color:#4e54c8"/>
</linearGradient>
<path class="st0" d="M31.5,23.29c0,1.1-0.9,2-2,2s-2-0.9-2-2c0-1.1,0.9-2,2-2S31.5,22.19,31.5,23.29z M70.5,21.29c-1.1,0-2,0.9-2,2  c0,1.1,0.9,2,2,2s2-0.9,2-2C72.5,22.19,71.6,21.29,70.5,21.29z M58.38,33.71H41.62c-9.99,0-18.12,8.13-18.12,18.12v4.75  c0,10,8.13,18.13,18.12,18.13h16.76c9.99,0,18.12-8.13,18.12-18.13v-4.75C76.5,41.84,68.37,33.71,58.38,33.71z"/>
<path class="st1" d="M77.49,51.71c-0.05-7.77-4.75-14.45-11.46-17.39l3.7-8.14c0.25,0.07,0.5,0.11,0.77,0.11c1.65,0,3-1.35,3-3  c0-1.65-1.35-3-3-3c-1.66,0-3,1.35-3,3c0,1.03,0.52,1.95,1.32,2.48l-3.72,8.18c-2.1-0.79-4.36-1.24-6.72-1.24H41.63  c-2.37,0-4.63,0.45-6.73,1.24l-3.72-8.18c0.8-0.54,1.32-1.45,1.32-2.48c0-1.65-1.35-3-3-3s-3,1.35-3,3c0,1.65,1.35,3,3,3  c0.27,0,0.52-0.04,0.77-0.11l3.7,8.14c-6.71,2.94-11.41,9.62-11.46,17.39H22.5v5h0.01c0.06,10.49,8.61,19,19.11,19h16.76  c10.5,0,19.05-8.51,19.11-19h0.01v-5H77.49z M68.5,23.29c0-1.1,0.9-2,2-2s2,0.9,2,2c0,1.1-0.9,2-2,2S68.5,24.39,68.5,23.29z   M29.5,25.29c-1.1,0-2-0.9-2-2c0-1.1,0.9-2,2-2s2,0.9,2,2C31.5,24.39,30.6,25.29,29.5,25.29z M76.5,56.58  c0,10-8.13,18.13-18.12,18.13H41.62c-9.99,0-18.12-8.13-18.12-18.13v-4.75c0-9.99,8.13-18.12,18.12-18.12h16.76  c9.99,0,18.12,8.13,18.12,18.12V56.58z"/>
<path class="st1" d="M61,78.709H40c-0.276,0-0.5,0.224-0.5,0.5s0.224,0.5,0.5,0.5h21c0.276,0,0.5-0.224,0.5-0.5  S61.276,78.709,61,78.709z"/>
<path class="st1" d="M56.795,41.709h-14.59c-6.454,0-11.705,5.251-11.705,11.705v0.59c0,6.454,5.251,11.705,11.705,11.705h12.324  c0.086,0.78,0.422,2.292,1.714,3.432c1.63,1.439,3.855,1.569,3.95,1.574c0.008,0.001,0.017,0.001,0.025,0.001  c0.168,0,0.325-0.085,0.418-0.227c0.098-0.149,0.108-0.339,0.028-0.498c-0.004-0.008-0.398-0.812-0.497-2.149  c-0.077-1.031-0.03-2.086,0.003-2.611c4.922-1.455,8.329-5.967,8.329-11.096v-0.721C68.5,46.96,63.249,41.709,56.795,41.709z   M67.5,54.135c0,4.794-3.261,8.998-7.929,10.226c-0.203,0.054-0.352,0.229-0.371,0.438c-0.006,0.063-0.144,1.587-0.03,3.118  c0.052,0.691,0.173,1.261,0.293,1.683c-0.698-0.15-1.736-0.482-2.558-1.208c-1.424-1.256-1.405-3.152-1.405-3.171  c0.002-0.134-0.049-0.265-0.144-0.36c-0.094-0.096-0.223-0.15-0.356-0.15H42.205c-5.903,0-10.705-4.803-10.705-10.705v-0.59  c0-5.903,4.802-10.705,10.705-10.705h14.59c5.902,0,10.705,4.802,10.705,10.705V54.135z"/>
<path class="st1" d="M39.5,50.709c-1.654,0-3,1.346-3,3s1.346,3,3,3s3-1.346,3-3S41.154,50.709,39.5,50.709z M39.5,55.709  c-1.103,0-2-0.897-2-2s0.897-2,2-2s2,0.897,2,2S40.603,55.709,39.5,55.709z"/>
<path class="st1" d="M49.5,50.709c-1.654,0-3,1.346-3,3s1.346,3,3,3s3-1.346,3-3S51.154,50.709,49.5,50.709z M49.5,55.709  c-1.103,0-2-0.897-2-2s0.897-2,2-2s2,0.897,2,2S50.603,55.709,49.5,55.709z"/>
<path class="st1" d="M59.5,50.709c-1.654,0-3,1.346-3,3s1.346,3,3,3s3-1.346,3-3S61.154,50.709,59.5,50.709z M59.5,55.709  c-1.103,0-2-0.897-2-2s0.897-2,2-2s2,0.897,2,2S60.603,55.709,59.5,55.709z"/>
<path class="st1" d="M31.383,43.207c0.152,0,0.301-0.069,0.4-0.199c1.338-1.775,3.259-3.046,5.408-3.58  c0.268-0.066,0.431-0.338,0.365-0.606c-0.067-0.268-0.338-0.429-0.606-0.365c-2.371,0.589-4.489,1.991-5.966,3.948  c-0.166,0.221-0.122,0.534,0.098,0.701C31.173,43.174,31.279,43.207,31.383,43.207z"/></svg>