<?xml version="1.0" ?>
<!DOCTYPE svg  
PUBLIC '-//W3C//DTD SVG 1.1//EN'  
'http://www.w3.org/Graphics/SVG/1.1/DTD/svg11.dtd'>
<svg enable-background="new 0 0 24 24" 
height="46px" 
width="46px"
viewBox="0 0 24 24" 
id="Layer_1" 
version="1.1" 
xml:space="preserve" 
xmlns="http://www.w3.org/2000/svg" 
xmlns:xlink="http://www.w3.org/1999/xlink">
<g><g><g>
<path fill = "#FFF" d="M12.9,21.7h-1.7c-1.5,0-2.7-1.2-2.7-2.7v-1.4c0-0.3,0.2-0.5,0.5-0.5h6c0.3,0,0.5,0.2,0.5,0.5V19     C15.5,20.5,14.3,21.7,12.9,21.7z M9.5,18.2V19c0,0.9,0.7,1.7,1.7,1.7h1.7c0.9,0,1.7-0.7,1.7-1.7v-0.9H9.5z"/></g><g><g>
<path fill = "#FFF" d="M7.5,17.7c-0.2,0-0.4-0.1-0.6-0.3l-2.2-2.6c0,0-0.1-0.1-0.1-0.1c0,0,0,0,0,0c-0.2-0.3-0.4-0.7-0.4-1.1      c0-1.1,0.9-1.9,2.1-1.9c0.4,0,0.8,0.1,1.2,0.3c0.4-0.2,0.8-0.3,1.2-0.3c1.1,0,2.1,0.9,2.1,1.9c0,0.4-0.1,0.8-0.4,1.1      c0,0-0.1,0.1-0.1,0.1l-2.2,2.6C8,17.6,7.7,17.7,7.5,17.7z M5.4,14.2l2.1,2.4l2.1-2.5c0.1-0.2,0.2-0.3,0.2-0.5      c0-0.5-0.5-0.9-1.1-0.9c-0.3,0-0.6,0.1-0.8,0.3c-0.1,0.1-0.2,0.1-0.4,0.1c0,0,0,0,0,0c-0.1,0-0.3-0.1-0.4-0.2      c-0.2-0.2-0.5-0.3-0.8-0.3c-0.6,0-1.1,0.4-1.1,0.9C5.2,13.8,5.3,14,5.4,14.2C5.4,14.2,5.4,14.2,5.4,14.2z"/></g><g>
<path fill = "#FFF" d="M16.5,17.7c-0.3,0-0.5-0.1-0.7-0.3l-2.1-2.5c0,0,0,0,0,0c-0.3-0.4-0.4-0.8-0.4-1.2c0-1.1,0.9-1.9,2.1-1.9      c0.4,0,0.8,0.1,1.2,0.3c0.3-0.2,0.8-0.3,1.2-0.3c1.1,0,2.1,0.9,2.1,1.9c0,0.4-0.1,0.8-0.4,1.1c0,0-0.1,0.1-0.1,0.1l-2.2,2.6      C17,17.6,16.8,17.7,16.5,17.7z M14.4,14.2C14.4,14.2,14.4,14.2,14.4,14.2l2.1,2.5l2.1-2.5c0,0,0.1-0.1,0.1-0.1      c0.1-0.1,0.1-0.3,0.1-0.5c0-0.5-0.5-0.9-1.1-0.9c-0.3,0-0.6,0.1-0.8,0.3c-0.1,0.1-0.2,0.2-0.4,0.2c-0.1,0-0.3-0.1-0.4-0.2      c-0.2-0.2-0.5-0.3-0.8-0.3c-0.6,0-1.1,0.4-1.1,0.9C14.2,13.8,14.3,14,14.4,14.2z"/></g></g></g><g><g>
<path fill = "#FFF" d="M19.9,23.6H4.1c-2,0-3.7-1.7-3.7-3.7V12c0-2,1.7-3.7,3.7-3.7h15.7c2,0,3.7,1.7,3.7,3.7v7.9     C23.6,21.9,21.9,23.6,19.9,23.6z M4.1,9.3c-1.5,0-2.7,1.2-2.7,2.7v7.9c0,1.5,1.2,2.7,2.7,2.7h15.7c1.5,0,2.7-1.2,2.7-2.7V12     c0-1.5-1.2-2.7-2.7-2.7H4.1z"/></g><g><g>
<rect fill = "#FFF" height="1" width="2.8" x="10.6" y="6.9"/></g><g>
<rect fill = "#FFF" height="1" width="2.8" x="10.6" y="5.6"/></g><g>
<rect fill = "#FFF" height="1.4" width="1" x="11.5" y="3.9"/></g><g>
<path fill = "#FFF" d="M12,4.5c-1.1,0-2-0.9-2-2s0.9-2,2-2c1.1,0,2,0.9,2,2S13.1,4.5,12,4.5z M12,1.4c-0.6,0-1,0.5-1,1s0.5,1,1,1      c0.6,0,1-0.5,1-1S12.6,1.4,12,1.4z"/></g></g></g></g></svg>