<?xml version="1.0" ?>
<!DOCTYPE svg  PUBLIC '-//W3C//DTD SVG 1.1//EN'  'http://www.w3.org/Graphics/SVG/1.1/DTD/svg11.dtd'>
<svg 
enable-background="new 0 0 24 24" 
height="46px" 
id="Layer_1" 
version="1.1" 
viewBox="0 0 24 24" 
width="46px" 
xml:space="preserve" 
xmlns="http://www.w3.org/2000/svg" 
xmlns:xlink="http://www.w3.org/1999/xlink">
<g>
<g>
<g>
<path fill = "#FFF" d="M12.3,19.4c-1.5,0-2.9-0.6-4-1.6c-0.1-0.1-0.2-0.4-0.1-0.5c0.1-0.2,0.3-0.3,0.5-0.3l7.2,0c0,0,0,0,0,0     c0.2,0,0.4,0.1,0.5,0.3c0.1,0.2,0,0.4-0.1,0.5C15.2,18.8,13.8,19.4,12.3,19.4z M10.2,17.9c1.3,0.7,2.9,0.7,4.2,0L10.2,17.9z"/></g><g><g>
<path fill = "#FFF" d="M6.1,14.8l-0.7-0.7l0.4-0.4C6.2,13.2,6.8,13,7.5,13c0,0,0,0,0,0c0.7,0,1.3,0.3,1.8,0.7l0.4,0.4l-0.7,0.7l-0.4-0.4      C8.3,14.1,7.9,14,7.5,14c0,0,0,0,0,0c-0.4,0-0.8,0.2-1.1,0.4L6.1,14.8z"/></g><g>
<path fill = "#FFF" d="M15.7,14.8L15,14.1l0.4-0.4c1-1,2.6-1,3.6,0l0.4,0.4l-0.7,0.7l-0.4-0.4c-0.6-0.6-1.6-0.6-2.2,0L15.7,14.8z"/></g></g></g><g><g>
<path fill = "#FFF" d="M19.9,23.6H4.2c-2.1,0-3.7-1.7-3.7-3.7V12c0-2,1.7-3.7,3.7-3.7h15.7c2,0,3.7,1.7,3.7,3.7v7.9     C23.6,21.9,21.9,23.6,19.9,23.6z M4.2,9.2c-1.5,0-2.7,1.2-2.7,2.7v7.9c0,1.5,1.2,2.7,2.7,2.7h15.7c1.5,0,2.7-1.2,2.7-2.7V12     c0-1.5-1.2-2.7-2.7-2.7H4.2z"/></g><g><g>
<rect fill = "#FFF" height="1" width="2.8" x="10.6" y="6.9"/></g><g>
<rect fill = "#FFF" height="1" width="2.8" x="10.6" y="5.6"/></g><g>
<rect fill = "#FFF" height="1.4" width="1" x="11.5" y="3.9"/></g><g>
<path fill = "#FFF" d="M12,4.5c-1.1,0-2-0.9-2-2c0-1.1,0.9-2,2-2s2,0.9,2,2C14,3.6,13.1,4.5,12,4.5z M12,1.4c-0.6,0-1,0.5-1,1c0,0.6,0.5,1,1,1      s1-0.5,1-1C13,1.9,12.6,1.4,12,1.4z"/></g></g></g></g>
</svg>